<svg width="51" height="195" viewBox="0 0 51 195" fill="none" xmlns="http://www.w3.org/2000/svg">
<path d="M0.2 0.599987C8.73333 0.599987 15.4667 1.99999 20.4 4.79999C25.3333 7.6 28.8667 12.4 31 19.2C33.1333 25.8667 34.2 35.0667 34.2 46.8C34.2 59.3333 34.6 69.0667 35.4 76C36.3333 82.9333 37.8667 87.8667 40 90.8C42.2667 93.6 45.4 95.1333 49.4 95.4H50.4V99H49.4C45.4 99.2667 42.2667 100.867 40 103.8C37.8667 106.733 36.3333 111.667 35.4 118.6C34.6 125.4 34.2 135.067 34.2 147.6C34.2 159.867 33.1333 169.4 31 176.2C28.8667 183 25.3333 187.733 20.4 190.4C15.4667 193.2 8.73333 194.6 0.2 194.6V190.8C3.4 190.8 6.06667 190.333 8.2 189.4C10.3333 188.6 11.9333 186.733 13 183.8C14.2 181 15 176.733 15.4 171C15.9333 165.267 16.2 157.467 16.2 147.6C16.2 138.667 16.9333 131.2 18.4 125.2C20 119.2 22.1333 114.333 24.8 110.6C27.4667 106.867 30.5333 104 34 102C37.4667 99.8667 41.0667 98.2667 44.8 97.2C41.0667 96.1333 37.4667 94.6 34 92.6C30.5333 90.4667 27.4667 87.5333 24.8 83.8C22.1333 80.0667 20 75.2 18.4 69.2C16.9333 63.2 16.2 55.7333 16.2 46.8C16.2 37.3333 15.9333 29.8 15.4 24.2C15 18.6 14.2 14.4 13 11.6C11.9333 8.79999 10.3333 6.93333 8.2 5.99999C6.06667 5.06666 3.4 4.53333 0.2 4.4V0.599987Z" fill="white"/>
</svg>
