<svg width="51" height="195" viewBox="0 0 51 195" fill="none" xmlns="http://www.w3.org/2000/svg">
<g clip-path="url(#clip0_16_44)">
<path d="M50.6 0.599976V4.39999C47.4 4.53332 44.7333 5.06665 42.6 5.99998C40.4667 6.93332 38.8 8.79998 37.6 11.6C36.5333 14.4 35.7333 18.6 35.2 24.2C34.8 29.8 34.6 37.3333 34.6 46.8C34.6 55.7333 33.8 63.2 32.2 69.2C30.7333 75.2 28.6667 80.0667 26 83.8C23.3333 87.5333 20.2667 90.4667 16.8 92.6C13.3333 94.6 9.73335 96.1333 6.00002 97.2C9.73335 98.2667 13.3333 99.8667 16.8 102C20.2667 104 23.3333 106.867 26 110.6C28.6667 114.333 30.7333 119.2 32.2 125.2C33.8 131.2 34.6 138.667 34.6 147.6C34.6 157.467 34.8 165.267 35.2 171C35.7333 176.733 36.5333 181 37.6 183.8C38.8 186.733 40.4667 188.6 42.6 189.4C44.7333 190.333 47.4 190.8 50.6 190.8V194.6C42.2 194.6 35.4667 193.2 30.4 190.4C25.4667 187.733 21.9333 183 19.8 176.2C17.6667 169.4 16.6 159.867 16.6 147.6C16.6 135.067 16.1333 125.4 15.2 118.6C14.4 111.667 12.9333 106.733 10.8 103.8C8.66669 100.867 5.53335 99.2667 1.40002 99H0.400024V95.4H1.40002C5.53335 95.1333 8.66669 93.6 10.8 90.8C12.9333 87.8667 14.4 82.9333 15.2 76C16.1333 69.0667 16.6 59.3333 16.6 46.8C16.6 35.0667 17.6667 25.8667 19.8 19.2C21.9333 12.4 25.4667 7.59999 30.4 4.79998C35.4667 1.99998 42.2 0.599976 50.6 0.599976Z" fill="white"/>
</g>
<defs>
<clipPath id="clip0_16_44">
<rect width="51" height="195" fill="white"/>
</clipPath>
</defs>
</svg>
