<?xml version="1.0" encoding="utf-8"?>
<!-- Generator: Adobe Illustrator 27.5.0, SVG Export Plug-In . SVG Version: 6.00 Build 0)  -->
<svg version="1.1" id="Layer_1" xmlns="http://www.w3.org/2000/svg" xmlns:xlink="http://www.w3.org/1999/xlink" x="0px" y="0px"
	 viewBox="0 0 5000 2916" style="enable-background:new 0 0 5000 2916;" xml:space="preserve">
<g>
	<rect style="fill-rule:evenodd;clip-rule:evenodd;fill:#FFFFFF;" width="5000" height="2916"/>
	<path style="opacity:0.37;fill-rule:evenodd;clip-rule:evenodd;fill:#66FFCC;" d="M944.655,1891.799
		C701.43,2052.029,355.169,2017.08,0,1965.265v337.458c979.456,18.589,1895.649-635.414,2893.932-118.028
		c581.08,301.162,1349.562-33.611,2106.068-124.505v-260.878c-309.68-47.333-600.491-66.046-774.452,92.485
		c-480.969,438.309-1168.066-325.601-1855.163,0C1971.918,2080.624,1419.897,1578.722,944.655,1891.799"/>
	<path style="opacity:0.37;fill-rule:evenodd;clip-rule:evenodd;fill:#99FFFF;" d="M944.655,1989.804
		C701.43,2150.034,355.169,2115.085,0,2063.27v337.458c979.456,18.589,1895.649-635.415,2893.932-118.026
		c581.08,301.16,1349.562-33.613,2106.068-124.507v-260.877c-309.68-47.333-600.491-66.047-774.452,92.484
		c-480.969,438.31-1168.066-325.601-1855.163,0C1971.918,2178.629,1419.897,1676.728,944.655,1989.804"/>
	<g>
		<defs>
			<path id="SVGID_1_" d="M2893.932,2176.991C1895.649,1659.603,979.456,2313.607,0,2295.017V2916h5000v-863.516
				C4243.495,2143.378,3475.012,2478.151,2893.932,2176.991"/>
		</defs>
		<clipPath id="SVGID_00000009557596099310040750000001092990047113917847_">
			<use xlink:href="#SVGID_1_"  style="overflow:visible;"/>
		</clipPath>
		
			<linearGradient id="SVGID_00000124843540753019755070000013226353120490457492_" gradientUnits="userSpaceOnUse" x1="43.9557" y1="2564.4861" x2="4159.6387" y2="2100.8359">
			<stop  offset="0" style="stop-color:#6699FF"/>
			<stop  offset="1" style="stop-color:#99FFFF"/>
		</linearGradient>
		
			<rect y="1659.603" style="opacity:0.88;clip-path:url(#SVGID_00000009557596099310040750000001092990047113917847_);fill:url(#SVGID_00000124843540753019755070000013226353120490457492_);" width="5000" height="1256.397"/>
	</g>
	<defs>
		<filter id="Adobe_OpacityMaskFilter" filterUnits="userSpaceOnUse" x="0" y="2290.865" width="5000" height="625.135">
			<feColorMatrix  type="matrix" values="1 0 0 0 0  0 1 0 0 0  0 0 1 0 0  0 0 0 1 0"/>
		</filter>
	</defs>
	
		<mask maskUnits="userSpaceOnUse" x="0" y="2290.865" width="5000" height="625.135" id="SVGID_00000109707906888363123320000011530081446154158781_">
		<g style="filter:url(#Adobe_OpacityMaskFilter);">
			
				<linearGradient id="SVGID_00000009548020803699002340000007221731477590526599_" gradientUnits="userSpaceOnUse" x1="-9190.874" y1="5354.3779" x2="-5248.0283" y2="3640.5068" gradientTransform="matrix(1 0 0 1 9789.7871 -1924.5835)">
				<stop  offset="0" style="stop-color:#FFFFFF"/>
				<stop  offset="1" style="stop-color:#000000"/>
			</linearGradient>
			
				<rect y="2290.865" style="fill:url(#SVGID_00000009548020803699002340000007221731477590526599_);" width="5000" height="625.135"/>
		</g>
	</mask>
	
		<path style="mask:url(#SVGID_00000109707906888363123320000011530081446154158781_);fill-rule:evenodd;clip-rule:evenodd;fill:#66FFCC;" d="
		M2893.932,2490.479C1895.649,1973.092,979.456,2627.095,0,2608.506V2916h5000v-550.027
		C4243.495,2456.867,3475.012,2791.641,2893.932,2490.479"/>
	<path style="fill-rule:evenodd;clip-rule:evenodd;fill:#1A1A1A;" d="M3279.615,1416.253h8.269v83.491h-8.269V1416.253z
		 M3287.554,1492.042h18.891c7.721,0,13.505-1.803,17.364-5.409c3.841-3.626,5.766-9.074,5.766-16.345v-24.577
		c0-7.272-1.924-12.721-5.766-16.327c-3.859-3.626-9.642-5.429-17.364-5.429h-18.891v-7.702h18.54
		c7.075,0,12.971,1.098,17.676,3.312c4.723,2.195,8.234,5.508,10.565,9.957c2.353,4.449,3.508,9.994,3.508,16.658v23.657
		c0,6.644-1.176,12.192-3.529,16.62c-2.353,4.411-5.878,7.742-10.601,9.956c-4.705,2.216-10.604,3.331-17.68,3.331h-18.48V1492.042z
		 M3165.704,1416.253h8.333l48.467,75.22l-3.388-2.292v-72.928h8.269v83.433h-8.448l-49.429-75.789l4.47,3.272v72.517h-8.273
		V1416.253z M3085.215,1500.608c-6.549,0-11.977-1.138-16.306-3.391c-4.333-2.253-7.567-5.644-9.744-10.134
		c-2.153-4.507-3.234-10.151-3.234-16.972v-53.858h8.273v54.269c0,7.312,1.745,12.799,5.214,16.445
		c3.487,3.663,8.761,5.487,15.797,5.487c7.033,0,12.325-1.824,15.854-5.487c3.508-3.646,5.271-9.134,5.271-16.445v-54.269h8.273
		v53.858c0,6.821-1.078,12.465-3.251,16.972c-2.156,4.489-5.428,7.88-9.782,10.134
		C3097.206,1499.47,3091.76,1500.608,3085.215,1500.608z M2977.224,1492.904c4.428,0,8.231-0.881,11.387-2.665
		c3.153-1.784,5.565-4.371,7.212-7.742c1.643-3.39,2.468-7.486,2.468-12.268v-24.461c0-4.782-0.825-8.879-2.468-12.25
		c-1.647-3.389-4.059-5.977-7.212-7.761c-3.156-1.783-6.959-2.665-11.387-2.665c-4.449,0-8.251,0.882-11.408,2.665
		c-3.157,1.784-5.565,4.372-7.212,7.761c-1.647,3.371-2.469,7.469-2.469,12.25v24.461c0,4.781,0.822,8.877,2.469,12.268
		c1.647,3.371,4.055,5.958,7.212,7.742C2968.973,1492.022,2972.775,1492.904,2977.224,1492.904z M2977.224,1500.608
		c-6.215,0-11.506-1.216-15.878-3.626c-4.389-2.411-7.742-5.899-10.032-10.505c-2.293-4.586-3.43-10.134-3.43-16.64v-23.657
		c0-6.506,1.137-12.071,3.43-16.658c2.289-4.586,5.643-8.094,10.032-10.505c4.372-2.412,9.663-3.625,15.878-3.625
		c6.19,0,11.482,1.213,15.871,3.625c4.372,2.411,7.725,5.919,10.018,10.505c2.293,4.587,3.448,10.151,3.448,16.658v23.657
		c0,6.506-1.155,12.054-3.448,16.64c-2.293,4.606-5.646,8.094-10.018,10.505C2988.706,1499.392,2983.415,1500.608,2977.224,1500.608
		z M2873.23,1461.84l7.644-2.626l21.363,40.53h-9.877L2873.23,1461.84z M2841.365,1416.195h8.269v83.549h-8.269V1416.195z
		 M2846.48,1456.744h28.473c3.097,0,5.843-0.686,8.195-2.037c2.349-1.372,4.171-3.294,5.446-5.782s1.942-5.351,1.98-8.604
		c0-3.254-0.646-6.134-1.921-8.623c-1.274-2.49-3.097-4.409-5.449-5.763c-2.349-1.352-5.113-2.037-8.251-2.037h-28.473v-7.702
		h28.024c4.821,0,9.056,1,12.721,2.999c3.645,1.979,6.485,4.802,8.487,8.467c2.015,3.646,3.016,7.879,3.016,12.66
		c0,4.782-1.001,8.996-3.016,12.662c-2.001,3.644-4.842,6.466-8.529,8.467c-3.662,1.979-7.897,2.979-12.679,2.979h-28.024V1456.744z
		 M2790.854,1457.077v12.29c0,6.976-1.095,12.778-3.251,17.403c-2.156,4.626-5.407,8.094-9.74,10.388
		c-4.312,2.292-9.74,3.45-16.247,3.45c-6.583,0-12.054-1.098-16.443-3.274c-4.389-2.174-7.662-5.449-9.86-9.798
		c-2.173-4.332-3.251-9.781-3.251-16.327v-24.635c0-6.958,1.078-12.759,3.234-17.365c2.153-4.604,5.407-8.075,9.74-10.367
		c4.312-2.294,9.74-3.449,16.247-3.449c5.39,0,10.035,0.921,13.954,2.762c3.901,1.844,7.096,4.587,9.586,8.232
		c2.486,3.665,4.27,8.271,5.33,13.817h-8.958c-0.979-3.82-2.37-6.996-4.154-9.525c-1.784-2.527-3.982-4.429-6.605-5.683
		c-2.626-1.274-5.685-1.901-9.154-1.901c-4.684,0-8.564,0.862-11.661,2.607c-3.097,1.745-5.428,4.351-6.977,7.819
		c-1.549,3.451-2.332,7.802-2.332,13.054v24.635c0,4.861,0.783,8.899,2.349,12.093c1.591,3.195,3.94,5.586,7.096,7.194
		c3.157,1.606,7.114,2.409,11.858,2.409c4.646,0,8.445-0.823,11.468-2.469c2.999-1.646,5.25-4.173,6.759-7.624
		c1.531-3.45,2.272-7.879,2.272-13.268v-4.761h-20.204v-7.704H2790.854z M2654.313,1455.196l4.761-8.564l31.63,53.112h-9.877
		L2654.313,1455.196z M2626.736,1416.253h8.269v83.491h-8.269V1416.253z M2630.752,1474.305l45.763-58.052h10.685l-52.996,64.422
		L2630.752,1474.305z M2549.75,1500.608c-5.78,0-10.857-1.275-15.246-3.842c-4.393-2.567-7.781-6.212-10.193-10.916
		c-2.409-4.704-3.606-10.173-3.606-16.366v-22.91c0-6.194,1.198-11.662,3.606-16.365c2.412-4.703,5.801-8.349,10.193-10.936
		c4.389-2.587,9.467-3.88,15.246-3.88c4.782,0,9.193,0.979,13.209,2.94c4.017,1.939,7.37,4.703,10.078,8.29
		c2.704,3.586,4.526,7.721,5.485,12.426h-8.269c-0.924-3.136-2.43-5.9-4.509-8.31c-2.096-2.431-4.526-4.294-7.332-5.644
		c-2.781-1.334-5.681-2.001-8.662-2.001c-4.136,0-7.781,0.981-10.917,2.921c-3.135,1.96-5.565,4.703-7.289,8.252
		c-1.724,3.528-2.588,7.643-2.588,12.308v22.91c0,4.665,0.864,8.781,2.588,12.308c1.724,3.547,4.154,6.291,7.289,8.213
		c3.136,1.94,6.781,2.9,10.917,2.9c2.981,0,5.882-0.625,8.662-1.88c2.806-1.275,5.235-3.116,7.332-5.528
		c2.079-2.41,3.585-5.252,4.509-8.545h8.269c-0.958,4.703-2.802,8.858-5.527,12.426c-2.704,3.588-6.074,6.349-10.095,8.309
		C2558.883,1499.627,2554.494,1500.608,2549.75,1500.608z M2420.85,1471.777h43.919v7.702h-43.919V1471.777z M2437.451,1416.253
		h9.972l30.791,83.491h-9.189l-26.598-74.808l-26.577,74.808h-9.189L2437.451,1416.253z M2307.213,1416.253h8.273v83.491h-8.273
		V1416.253z M2314.113,1492.042h22.911c7.075,0,12.23-1.312,15.464-3.978c3.234-2.665,4.86-6.41,4.86-11.231v-0.176
		c0-3.294-0.607-6.116-1.801-8.486c-1.215-2.372-3.097-4.214-5.685-5.488c-2.588-1.294-5.92-1.921-9.976-1.921h-25.773v-7.702
		h25.773c5.449,0,9.523-1.196,12.269-3.606c2.742-2.411,4.098-5.997,4.098-10.739c0-4.94-1.492-8.644-4.47-11.094
		c-2.999-2.45-7.486-3.666-13.504-3.666h-24.165v-7.702h26.008c5.39,0,9.916,0.923,13.543,2.764c3.645,1.843,6.37,4.429,8.171,7.799
		c1.784,3.371,2.686,7.389,2.686,12.074c0,2.822-0.548,5.488-1.668,7.996c-1.096,2.508-2.802,4.665-5.074,6.468
		c-2.275,1.803-5.095,2.999-8.466,3.605c3.371,0.509,6.271,1.707,8.719,3.588c2.451,1.9,4.333,4.272,5.625,7.095
		c1.313,2.842,1.963,5.898,1.963,9.191v0.177c0,4.509-1.001,8.486-2.999,11.936c-1.98,3.449-4.842,6.114-8.546,7.976
		c-3.705,1.883-8.034,2.822-12.974,2.822h-26.988V1492.042z M2208.3,1465.819v33.925h-8.273v-33.925l-27.164-49.567h9.014
		l22.286,41.687l22.283-41.687h8.996L2208.3,1465.819z M2108.557,1461.84l7.644-2.626l21.363,40.53h-9.877L2108.557,1461.84z
		 M2076.692,1416.195h8.269v83.549h-8.269V1416.195z M2081.808,1456.744h28.477c3.094,0,5.839-0.686,8.192-2.037
		c2.353-1.372,4.175-3.294,5.446-5.782c1.275-2.489,1.942-5.351,1.98-8.604c0-3.254-0.646-6.134-1.921-8.623
		c-1.271-2.49-3.097-4.409-5.45-5.763c-2.349-1.352-5.112-2.037-8.248-2.037h-28.477v-7.702h28.024c4.821,0,9.056,1,12.721,2.999
		c3.645,1.979,6.489,4.802,8.487,8.467c2.016,3.646,3.016,7.879,3.016,12.66c0,4.782-1.001,8.996-3.016,12.662
		c-1.998,3.644-4.842,6.466-8.529,8.467c-3.662,1.979-7.897,2.979-12.679,2.979h-28.024V1456.744z M1996.199,1500.608
		c-6.545,0-11.977-1.138-16.307-3.391s-7.567-5.644-9.74-10.134c-2.156-4.507-3.234-10.151-3.234-16.972v-53.858h8.269v54.269
		c0,7.312,1.745,12.799,5.214,16.445c3.49,3.663,8.761,5.487,15.797,5.487c7.037,0,12.328-1.824,15.857-5.487
		c3.508-3.646,5.27-9.134,5.27-16.445v-54.269h8.269v53.858c0,6.821-1.074,12.465-3.251,16.972
		c-2.156,4.489-5.428,7.88-9.779,10.134C2008.193,1499.47,2002.744,1500.608,1996.199,1500.608z M1890.561,1453.412l24.049-37.159
		h9.133l-28.536,44.099l-25.499,39.392h-9.112L1890.561,1453.412z M1890.74,1461.331l-1.668-2.588l-27.792-42.49h9.133l23.54,36.062
		l1.489,2.293l29.576,45.136h-9.133L1890.74,1461.331z M1789.274,1500.608c-6.545,0-11.974-1.138-16.307-3.391
		c-4.329-2.253-7.563-5.644-9.74-10.134c-2.156-4.507-3.234-10.151-3.234-16.972v-53.858h8.273v54.269
		c0,7.312,1.745,12.799,5.214,16.445c3.487,3.663,8.757,5.487,15.794,5.487c7.037,0,12.328-1.824,15.857-5.487
		c3.508-3.646,5.271-9.134,5.271-16.445v-54.269h8.273v53.858c0,6.821-1.078,12.465-3.255,16.972
		c-2.156,4.489-5.428,7.88-9.779,10.134C1801.268,1499.47,1795.819,1500.608,1789.274,1500.608z M1668.017,1492.042h47.782v7.702
		h-47.782V1492.042z M1662.157,1416.253h8.269v83.491h-8.269V1416.253z"/>
</g>
</svg>
